<?xml version="1.0" encoding="UTF-8" standalone="no"?>
<svg
   xmlns:dc="http://purl.org/dc/elements/1.1/"
   xmlns:cc="http://creativecommons.org/ns#"
   xmlns:rdf="http://www.w3.org/1999/02/22-rdf-syntax-ns#"
   xmlns:svg="http://www.w3.org/2000/svg"
   xmlns="http://www.w3.org/2000/svg"
   xmlns:sodipodi="http://sodipodi.sourceforge.net/DTD/sodipodi-0.dtd"
   xmlns:inkscape="http://www.inkscape.org/namespaces/inkscape"
   sodipodi:docname="how_to_interpolate_drawing_2.svg"
   inkscape:version="1.0.1 (1.0.1+r74)"
   id="svg8"
   version="1.1"
   viewBox="0 0 89.400864 57.811947"
   height="57.811947mm"
   width="89.400864mm">
  <defs
     id="defs2">
    <marker
       style="overflow:visible"
       id="Arrow1Mend"
       refX="0"
       refY="0"
       orient="auto"
       inkscape:stockid="Arrow1Mend"
       inkscape:isstock="true">
      <path
         transform="matrix(-0.4,0,0,-0.4,-4,0)"
         style="fill-rule:evenodd;stroke:#000000;stroke-width:1pt"
         d="M 0,0 5,-5 -12.5,0 5,5 Z"
         id="path846" />
    </marker>
  </defs>
  <sodipodi:namedview
     inkscape:document-rotation="0"
     inkscape:showpageshadow="false"
     inkscape:snap-tangential="false"
     inkscape:window-maximized="1"
     inkscape:window-y="0"
     inkscape:window-x="0"
     inkscape:window-height="1054"
     inkscape:window-width="1920"
     inkscape:guide-bbox="true"
     showguides="false"
     showgrid="true"
     inkscape:current-layer="layer1"
     inkscape:document-units="mm"
     inkscape:cy="97.431486"
     inkscape:cx="170.16904"
     inkscape:zoom="1.6172583"
     inkscape:pageshadow="2"
     inkscape:pageopacity="0.0"
     borderopacity="1"
     bordercolor="#001cda"
     pagecolor="#ffffff"
     id="base"
     inkscape:snap-global="false">
    <sodipodi:guide
       inkscape:color="rgb(0,0,255)"
       inkscape:label=""
       inkscape:locked="false"
       id="guide815"
       orientation="1,0"
       position="0.11035391,-133.74538" />
    <sodipodi:guide
       inkscape:color="rgb(0,0,255)"
       inkscape:label=""
       inkscape:locked="false"
       id="guide817"
       orientation="1,0"
       position="190.11035,-133.74538" />
    <inkscape:grid
       enabled="false"
       dotted="false"
       spacingy="1"
       spacingx="1"
       units="mm"
       id="grid857"
       type="xygrid"
       originx="-9.8896464"
       originy="-105.44268" />
  </sodipodi:namedview>
  <metadata
     id="metadata5">
    <rdf:RDF>
      <cc:Work
         rdf:about="">
        <dc:format>image/svg+xml</dc:format>
        <dc:type
           rdf:resource="http://purl.org/dc/dcmitype/StillImage" />
        <dc:title />
        <dc:creator>
          <cc:Agent>
            <dc:title>Matías Senger</dc:title>
          </cc:Agent>
        </dc:creator>
        <cc:license
           rdf:resource="http://creativecommons.org/publicdomain/zero/1.0/" />
      </cc:Work>
      <cc:License
         rdf:about="http://creativecommons.org/publicdomain/zero/1.0/">
        <cc:permits
           rdf:resource="http://creativecommons.org/ns#Reproduction" />
        <cc:permits
           rdf:resource="http://creativecommons.org/ns#Distribution" />
        <cc:permits
           rdf:resource="http://creativecommons.org/ns#DerivativeWorks" />
      </cc:License>
    </rdf:RDF>
  </metadata>
  <g
     id="layer1"
     inkscape:groupmode="layer"
     inkscape:label="Capa 1"
     transform="translate(-9.8896456,-105.44268)">
    <rect
       style="font-variation-settings:normal;opacity:1;vector-effect:none;fill:#ffffff;fill-opacity:1;fill-rule:evenodd;stroke:none;stroke-width:0.264999;stroke-linecap:butt;stroke-linejoin:miter;stroke-miterlimit:4;stroke-dasharray:none;stroke-dashoffset:0;stroke-opacity:1;stop-color:#000000;stop-opacity:1"
       id="rect856"
       width="89.400864"
       height="57.811947"
       x="9.8896456"
       y="105.44268" />
    <path
       style="fill:none;stroke:#000000;stroke-width:0.265;stroke-linecap:butt;stroke-linejoin:miter;stroke-miterlimit:4;stroke-dasharray:none;stroke-opacity:1;marker-end:url(#Arrow1Mend)"
       d="m 20.176315,156.43557 h 69.80338"
       id="path10" />
    <path
       style="fill:none;stroke:#000000;stroke-width:0.265;stroke-linecap:butt;stroke-linejoin:miter;stroke-miterlimit:4;stroke-dasharray:none;stroke-opacity:1;marker-end:url(#Arrow1Mend)"
       d="m 20.176315,156.43557 v -47.3684"
       id="path12" />
    <path
       style="font-variation-settings:normal;opacity:0.375331;vector-effect:none;fill:#0066ff;fill-opacity:1;stroke:none;stroke-width:0.908;stroke-linecap:butt;stroke-linejoin:round;stroke-miterlimit:10;stroke-dasharray:none;stroke-dashoffset:0;stroke-opacity:1;paint-order:markers stroke fill;stop-color:#000000;stop-opacity:1"
       id="path1177"
       d="m 21.324109,155.46867 c 0.252081,0.027 0.505253,0.008 0.756922,-0.0131 0.408569,-0.0291 0.814498,-0.0692 1.217129,-0.1452 0.48866,-0.0915 0.954229,-0.25939 1.404535,-0.46621 0.506234,-0.23683 0.956072,-0.56815 1.389405,-0.91684 0.483062,-0.40058 0.935741,-0.83532 1.376232,-1.28171 0.498081,-0.50495 0.894549,-1.09216 1.260803,-1.69597 0.397267,-0.65282 0.623486,-1.33616 0.806352,-2.07244 0.167101,-0.78396 0.319183,-1.57102 0.480695,-2.35616 0.133877,-0.74399 0.310994,-1.47819 0.49235,-2.21166 0.170866,-0.70195 0.315786,-1.40973 0.487781,-2.11141 0.186409,-0.69167 0.345908,-1.38981 0.48918,-2.09155 0.141155,-0.70876 0.21935,-1.42742 0.268311,-2.14776 0.03563,-0.69264 0.03696,-1.38634 0.0523,-2.07957 0.0019,-0.60812 0.107741,-1.20761 0.219528,-1.80318 0.120822,-0.59314 0.298246,-1.17252 0.46973,-1.75242 0.171307,-0.57877 0.340545,-1.15808 0.497256,-1.74099 0.140332,-0.56942 0.287438,-1.13711 0.432268,-1.70539 0.145597,-0.60536 0.307475,-1.20544 0.5158,-1.79227 0.221263,-0.59337 0.467722,-1.1769 0.70807,-1.7627 0.239953,-0.57273 0.497662,-1.13772 0.757798,-1.70149 0.260829,-0.57224 0.541184,-1.13524 0.827905,-1.69486 0.239123,-0.49195 0.515086,-0.9632 0.823661,-1.4144 0.249174,-0.36267 0.557369,-0.67618 0.886532,-0.96574 0.250862,-0.22002 0.528441,-0.40465 0.814064,-0.57567 0.209841,-0.12599 0.434372,-0.22751 0.673079,-0.28302 0.249881,-0.0629 0.501618,-0.0413 0.749933,0.0147 0.35442,0.0924 0.687855,0.24836 1.007935,0.42369 0.365019,0.20086 0.70263,0.44277 1.029936,0.69921 0.341582,0.26098 0.649398,0.55939 0.939374,0.87563 0.324236,0.34289 0.582363,0.7366 0.818456,1.143 0.256509,0.45097 0.480399,0.91947 0.693759,1.39206 0.216204,0.49588 0.427802,0.99372 0.645486,1.48896 0.23687,0.53746 0.459332,1.08099 0.670758,1.62891 0.218252,0.57826 0.425614,1.16055 0.631809,1.74318 0.217808,0.61691 0.452543,1.22763 0.682826,1.83994 0.237204,0.64261 0.484569,1.28139 0.727993,1.92166 0.239408,0.66583 0.511556,1.31734 0.8073,1.95987 0.314211,0.66778 0.642876,1.32832 0.951465,1.99876 0.303464,0.67325 0.60525,1.34702 0.916604,2.01669 0.317397,0.69383 0.676204,1.36706 1.043011,2.03567 0.367866,0.66716 0.743913,1.32966 1.107043,1.99942 0.350311,0.66235 0.690087,1.33025 1.026354,1.99982 0.317849,0.64661 0.624548,1.29857 0.940604,1.94605 0.311639,0.62781 0.610632,1.26175 0.90923,1.89583 0.263596,0.5647 0.52106,1.13225 0.783767,1.69736 0.206801,0.44411 0.406228,0.8916 0.614916,1.33482 0.183438,0.37245 0.386805,0.73474 0.602437,1.08939 0.18356,0.31882 0.400079,0.61512 0.627544,0.90344 0.234585,0.28804 0.495832,0.55348 0.76508,0.80897 0.239588,0.2295 0.510405,0.42147 0.782026,0.61044 0.330589,0.21947 0.677818,0.41277 1.026425,0.60184 0.35433,0.19449 0.727419,0.34764 1.106556,0.48577 0.433099,0.15631 0.883399,0.25447 1.333529,0.34669 0.399743,0.0816 0.802024,0.14691 1.20776,0.18923 0.45335,0.038 0.907227,0.0702 1.361276,0.0987 0.491588,0.0307 0.982281,0.0712 1.472657,0.11695 0.487302,0.0467 0.973095,0.10689 1.458468,0.17016 0.437142,0.057 0.517724,-0.56124 0.08058,-0.61821 v 0 c -0.492919,-0.0643 -0.986274,-0.12534 -1.481154,-0.1727 -0.496617,-0.0463 -0.993563,-0.0873 -1.491406,-0.11841 -0.445619,-0.028 -0.891055,-0.0597 -1.336016,-0.0966 -0.385421,-0.0399 -0.767384,-0.10259 -1.147109,-0.17989 -0.420211,-0.086 -0.840906,-0.17638 -1.245399,-0.32179 -0.350401,-0.12734 -0.695309,-0.26816 -1.022651,-0.44801 -0.328443,-0.17792 -0.655532,-0.35993 -0.96759,-0.56559 -0.245916,-0.17092 -0.491987,-0.34351 -0.709046,-0.55104 -0.247795,-0.23463 -0.488135,-0.47859 -0.704583,-0.74273 -0.211931,-0.26846 -0.414012,-0.544 -0.584387,-0.84135 -0.204431,-0.33553 -0.396611,-0.67868 -0.570966,-1.03087 -0.208301,-0.44227 -0.407154,-0.8889 -0.613608,-1.33203 -0.263158,-0.56604 -0.521002,-1.13454 -0.785075,-1.70016 -0.299839,-0.63671 -0.600093,-1.27327 -0.913005,-1.90369 -0.317095,-0.64959 -0.624708,-1.30372 -0.943732,-1.95238 -0.339212,-0.67539 -0.681929,-1.34912 -1.035415,-2.01717 -0.363643,-0.67066 -0.740101,-1.33412 -1.10853,-2.00214 -0.360204,-0.65646 -0.712695,-1.31736 -1.024266,-1.99864 -0.311017,-0.66894 -0.612415,-1.34202 -0.915604,-2.01453 -0.308623,-0.67044 -0.637021,-1.33111 -0.951486,-1.9988 -0.289949,-0.62962 -0.556419,-1.26811 -0.790858,-1.92071 -0.243166,-0.63956 -0.490255,-1.27765 -0.727202,-1.91956 -0.228854,-0.6085 -0.462153,-1.21541 -0.678641,-1.82847 -0.208158,-0.58815 -0.417488,-1.17595 -0.637902,-1.75965 -0.214919,-0.55678 -0.440912,-1.10915 -0.681651,-1.65532 -0.218538,-0.49715 -0.430837,-0.99698 -0.64805,-1.49471 -0.222316,-0.49199 -0.455594,-0.97971 -0.723101,-1.44903 -0.259278,-0.44475 -0.54324,-0.87525 -0.898038,-1.25102 -0.313388,-0.34097 -0.645792,-0.66303 -1.014299,-0.9449 -0.354549,-0.27739 -0.720767,-0.53855 -1.11602,-0.7558 -0.373364,-0.20242 -0.761368,-0.38314 -1.175332,-0.48577 -0.341733,-0.0708 -0.68752,-0.0981 -1.029981,-0.0104 -0.297709,0.0761 -0.582123,0.19209 -0.844483,0.35365 -0.317963,0.19089 -0.626624,0.39746 -0.905839,0.64279 -0.367215,0.32461 -0.710996,0.6758 -0.988962,1.08167 -0.322797,0.47313 -0.613082,0.96632 -0.863716,1.48178 -0.290579,0.56725 -0.574728,1.13791 -0.839124,1.71792 -0.263868,0.57188 -0.525221,1.14502 -0.768495,1.72605 -0.244192,0.59517 -0.494625,1.18803 -0.718921,1.7911 -0.214013,0.60488 -0.382804,1.22264 -0.532302,1.84655 -0.144139,0.56566 -0.290689,1.1307 -0.430209,1.69753 -0.155292,0.57793 -0.323258,1.1522 -0.493028,1.72602 -0.177498,0.60024 -0.360624,1.2001 -0.48464,1.81429 -0.117885,0.62896 -0.227615,1.26222 -0.23006,1.90433 -0.01508,0.68377 -0.01659,1.36801 -0.05103,2.05122 -0.04671,0.69265 -0.121817,1.38366 -0.257143,2.06521 -0.141555,0.69383 -0.299556,1.384 -0.483863,2.06786 -0.171767,0.70129 -0.317097,1.40851 -0.487465,2.11013 -0.183319,0.74144 -0.362231,1.48366 -0.49779,2.23569 -0.159843,0.77704 -0.31075,1.55592 -0.475221,2.33198 -0.163689,0.66385 -0.374345,1.31191 -0.734351,1.89912 -0.340569,0.56255 -0.707964,1.11066 -1.171466,1.58126 -0.42368,0.42969 -0.859154,0.84808 -1.323515,1.23404 -0.393037,0.31706 -0.800081,0.62001 -1.259233,0.83613 -0.40367,0.18678 -0.821355,0.33741 -1.259911,0.41992 -0.381042,0.0729 -0.765615,0.10801 -1.152328,0.13638 -0.213841,0.0179 -0.429039,0.0365 -0.643355,0.014 -0.438654,-0.0439 -0.500689,0.57648 -0.06204,0.62035 z" />
    <path
       style="font-variation-settings:normal;opacity:0.375331;vector-effect:none;fill:#ff7f2a;fill-opacity:1;stroke:none;stroke-width:0.908;stroke-linecap:butt;stroke-linejoin:round;stroke-miterlimit:10;stroke-dasharray:none;stroke-dashoffset:0;stroke-opacity:1;paint-order:markers stroke fill;stop-color:#000000;stop-opacity:1"
       id="path1181"
       d="m 35.620208,156.24069 c 0.241644,0.0577 0.482944,-0.0113 0.716442,-0.0721 0.334859,-0.0891 0.674367,-0.15875 1.012496,-0.23395 0.454819,-0.097 0.895631,-0.2371 1.327029,-0.40922 0.508473,-0.22188 1.010607,-0.45889 1.506775,-0.70704 0.541137,-0.2715 1.049071,-0.59974 1.547265,-0.94203 0.554905,-0.36061 1.048509,-0.79967 1.519153,-1.26214 0.466341,-0.46651 0.858747,-0.99771 1.27644,-1.50623 0.449548,-0.53359 0.911677,-1.05632 1.361284,-1.58987 0.443862,-0.52542 0.84542,-1.08414 1.248441,-1.64088 0.407969,-0.54737 0.797523,-1.10807 1.183675,-1.67093 0.407567,-0.59698 0.837012,-1.17842 1.257488,-1.76624 0.427791,-0.60071 0.816102,-1.22769 1.180676,-1.86832 0.350089,-0.62842 0.653159,-1.2813 0.962173,-1.93045 0.307237,-0.64514 0.605841,-1.29434 0.908548,-1.94162 0.286644,-0.62922 0.597937,-1.24642 0.916723,-1.85982 0.328149,-0.61825 0.653627,-1.23796 0.988745,-1.85248 0.356449,-0.61241 0.682697,-1.24035 0.982922,-1.88198 0.2818,-0.63199 0.561382,-1.26504 0.831673,-1.90205 0.265776,-0.65013 0.529931,-1.30073 0.807659,-1.94587 0.281498,-0.65109 0.571055,-1.29846 0.87427,-1.93972 0.28661,-0.62483 0.628539,-1.22119 0.973212,-1.81511 0.330507,-0.56039 0.651433,-1.12624 0.966851,-1.69523 0.306565,-0.55411 0.585163,-1.12256 0.850651,-1.69725 0.251119,-0.54958 0.516406,-1.09267 0.782064,-1.63535 0.218127,-0.45029 0.420544,-0.90761 0.661101,-1.34662 0.175487,-0.33025 0.389464,-0.63434 0.630772,-0.91904 0.187677,-0.21171 0.389474,-0.4115 0.619934,-0.57622 0.205791,-0.12094 0.428496,-0.20803 0.655326,-0.2801 0.199985,-0.0624 0.408204,-0.0889 0.616706,-0.0998 0.222102,-0.0106 0.443254,0.0212 0.661067,0.0614 0.249026,0.0518 0.490474,0.1288 0.726916,0.22147 0.241774,0.0944 0.474157,0.20991 0.701469,0.33464 0.293965,0.17785 0.559453,0.39789 0.81557,0.62567 0.3575,0.33233 0.687996,0.692 1.018426,1.0508 0.416693,0.44368 0.823331,0.89624 1.222894,1.35535 0.441277,0.52256 0.906658,1.0239 1.359175,1.53655 0.471488,0.52242 0.892104,1.08615 1.275874,1.67517 0.376872,0.57306 0.678854,1.18956 0.966269,1.81085 0.291719,0.61746 0.54093,1.25297 0.777041,1.89329 0.230177,0.647 0.456949,1.29537 0.675807,1.9463 0.216725,0.66298 0.40772,1.33403 0.604462,2.00313 0.20542,0.68588 0.39992,1.37494 0.601194,2.06202 0.206319,0.71345 0.474276,1.40693 0.754819,2.09389 0.289825,0.72539 0.642779,1.42196 1.016984,2.10673 0.376066,0.67834 0.76236,1.3509 1.139841,2.02845 0.353444,0.6527 0.711137,1.30304 1.069121,1.95325 0.366757,0.66774 0.725828,1.33962 1.073594,2.01744 0.343032,0.67797 0.668742,1.3645 0.97903,2.05802 0.287835,0.65281 0.552852,1.31545 0.803354,1.98339 0.211376,0.57614 0.408903,1.15723 0.600633,1.74016 0.156102,0.48099 0.303401,0.96474 0.460418,1.44542 0.137234,0.42609 0.260247,0.85656 0.386371,1.28602 0.10568,0.37099 0.213,0.74153 0.333539,1.10799 0.106106,0.31363 0.228544,0.62107 0.372097,0.91936 0.128801,0.28391 0.282905,0.55045 0.475522,0.79535 0.211429,0.25566 0.460227,0.47576 0.716052,0.68548 0.165508,0.13626 0.34225,0.25705 0.521785,0.37373 0.369843,0.23991 0.709129,-0.28313 0.339286,-0.52304 v 0 c -0.160475,-0.10388 -0.318373,-0.2115 -0.466175,-0.33312 -0.221628,-0.18112 -0.437845,-0.37053 -0.622395,-0.59035 -0.166126,-0.20739 -0.291735,-0.43768 -0.402608,-0.67904 -0.132361,-0.27332 -0.243369,-0.5559 -0.341384,-0.84331 -0.118621,-0.36001 -0.223494,-0.72427 -0.327539,-1.08872 -0.127891,-0.43547 -0.252658,-0.87194 -0.39193,-1.30395 -0.157183,-0.48108 -0.304464,-0.96528 -0.460814,-1.44663 -0.194437,-0.59103 -0.394695,-1.18022 -0.609137,-1.76432 -0.255137,-0.67994 -0.524822,-1.35456 -0.818007,-2.01907 -0.314894,-0.7036 -0.645266,-1.40018 -0.993412,-2.08798 -0.350592,-0.6832 -0.712423,-1.36048 -1.082138,-2.03351 -0.358489,-0.65113 -0.716653,-1.30241 -1.070639,-1.956 -0.376677,-0.67609 -0.762077,-1.34723 -1.13742,-2.02406 -0.36318,-0.66417 -0.705842,-1.33974 -0.986888,-2.04347 -0.272637,-0.6671 -0.533191,-1.34051 -0.73366,-2.03338 -0.201356,-0.68728 -0.395873,-1.37655 -0.601369,-2.06262 -0.198999,-0.67677 -0.392203,-1.35549 -0.611661,-2.02599 -0.220848,-0.65659 -0.449459,-1.31068 -0.681797,-1.96328 -0.241914,-0.65593 -0.497494,-1.30684 -0.796187,-1.93943 -0.300223,-0.64846 -0.61636,-1.29148 -1.00987,-1.88959 -0.400833,-0.61394 -0.838927,-1.20232 -1.330695,-1.74719 -0.451625,-0.51148 -0.915863,-1.01187 -1.356267,-1.53324 -0.403405,-0.4635 -0.813917,-0.92043 -1.234578,-1.3684 -0.344609,-0.37417 -0.689557,-0.74905 -1.063218,-1.09477 -0.291499,-0.25816 -0.593637,-0.50752 -0.929811,-0.70611 -0.250907,-0.13729 -0.50732,-0.26459 -0.774073,-0.36854 -0.273775,-0.10674 -0.553517,-0.19552 -0.841923,-0.25412 -0.266219,-0.0482 -0.536258,-0.0847 -0.80753,-0.0705 -0.261149,0.0152 -0.521673,0.049 -0.771953,0.12838 -0.289259,0.0929 -0.573455,0.20578 -0.831138,0.36895 -0.269449,0.19688 -0.511456,0.42676 -0.730457,0.67872 -0.267581,0.31721 -0.506293,0.65521 -0.701619,1.02233 -0.244512,0.4476 -0.452927,0.91243 -0.674111,1.37174 -0.267703,0.54689 -0.535017,1.09419 -0.788096,1.64803 -0.259019,0.56086 -0.530794,1.11563 -0.829934,1.65641 -0.313428,0.56542 -0.632357,1.1277 -0.960805,1.68456 -0.353447,0.60906 -0.703525,1.22092 -0.997612,1.86156 -0.306289,0.64789 -0.598927,1.30189 -0.88329,1.9597 -0.278133,0.64615 -0.542909,1.29767 -0.808943,1.94887 -0.267305,0.6301 -0.543964,1.2562 -0.822473,1.88141 -0.2946,0.63012 -0.615577,1.24631 -0.965549,1.84765 -0.337066,0.61818 -0.664567,1.24151 -0.994598,1.86347 -0.32276,0.62112 -0.637926,1.2461 -0.928253,1.88319 -0.302107,0.64599 -0.600118,1.2939 -0.90673,1.93776 -0.302503,0.63548 -0.598935,1.27473 -0.94116,1.89017 -0.353669,0.62204 -0.730742,1.23061 -1.145847,1.81386 -0.422831,0.59115 -0.854699,1.17587 -1.26451,1.77627 -0.383156,0.55854 -0.769726,1.11491 -1.174591,1.65804 -0.394044,0.54436 -0.786321,1.0909 -1.220184,1.60472 -0.451279,0.5356 -0.915371,1.06013 -1.366354,1.59597 -0.403521,0.4916 -0.782642,1.00504 -1.231749,1.45734 -0.444386,0.43735 -0.91024,0.85277 -1.435129,1.19286 -0.474453,0.32616 -0.957757,0.63954 -1.473157,0.8983 -0.48051,0.24061 -0.967137,0.4697 -1.459215,0.68568 -0.400005,0.16028 -0.808921,0.2896 -1.230939,0.37953 -0.345557,0.0769 -0.692494,0.1482 -1.034693,0.23933 -0.133228,0.0349 -0.276479,0.0904 -0.415885,0.0685 -0.429086,-0.10113 -0.572093,0.5057 -0.143005,0.60682 z" />
    <text
       xml:space="preserve"
       style="font-style:normal;font-variant:normal;font-weight:normal;font-stretch:normal;font-size:13.3333px;line-height:1.25;font-family:sans-serif;font-variant-ligatures:normal;font-variant-position:normal;font-variant-caps:normal;font-variant-numeric:normal;font-variant-alternates:normal;font-variant-east-asian:normal;font-feature-settings:normal;font-variation-settings:normal;text-indent:0;text-align:start;text-decoration:none;text-decoration-line:none;text-decoration-style:solid;text-decoration-color:#000000;letter-spacing:normal;word-spacing:normal;text-transform:none;writing-mode:lr-tb;direction:ltr;text-orientation:mixed;dominant-baseline:auto;baseline-shift:baseline;text-anchor:start;white-space:normal;shape-padding:0;shape-margin:0;inline-size:0;opacity:1;vector-effect:none;fill:#000000;fill-opacity:1;stroke:none;stroke-width:0.999999;stroke-linecap:butt;stroke-linejoin:miter;stroke-miterlimit:4;stroke-dasharray:none;stroke-dashoffset:0;stroke-opacity:1;paint-order:markers stroke fill;stop-color:#000000;stop-opacity:1"
       x="350.17819"
       y="596.02618"
       id="text1185"
       transform="scale(0.26458333)"><tspan
         sodipodi:role="line"
         id="tspan1183"
         x="350.17819"
         y="596.02618">c<tspan
   style="font-size:65%;baseline-shift:sub"
   id="tspan1187">i</tspan></tspan></text>
    <text
       xml:space="preserve"
       style="font-style:normal;font-variant:normal;font-weight:normal;font-stretch:normal;font-size:13.3333px;line-height:1.25;font-family:sans-serif;font-variant-ligatures:normal;font-variant-position:normal;font-variant-caps:normal;font-variant-numeric:normal;font-variant-alternates:normal;font-variant-east-asian:normal;font-feature-settings:normal;font-variation-settings:normal;text-indent:0;text-align:start;text-decoration:none;text-decoration-line:none;text-decoration-style:solid;text-decoration-color:#000000;letter-spacing:normal;word-spacing:normal;text-transform:none;writing-mode:lr-tb;direction:ltr;text-orientation:mixed;dominant-baseline:auto;baseline-shift:baseline;text-anchor:start;white-space:normal;shape-padding:0;shape-margin:0;inline-size:0;opacity:1;vector-effect:none;fill:#000000;fill-opacity:1;stroke:none;stroke-width:0.999999;stroke-linecap:butt;stroke-linejoin:miter;stroke-miterlimit:4;stroke-dasharray:none;stroke-dashoffset:0;stroke-opacity:1;paint-order:markers stroke fill;stop-color:#000000;stop-opacity:1"
       x="51.546593"
       y="540.80054"
       id="text1191"
       transform="matrix(0,-0.26458333,0.26458333,0,-125.08908,161.97074)"><tspan
         sodipodi:role="line"
         id="tspan1189"
         x="51.546593"
         y="540.80054">Probability density</tspan></text>
    <text
       xml:space="preserve"
       style="font-style:normal;font-variant:normal;font-weight:normal;font-stretch:normal;font-size:13.3333px;line-height:1.25;font-family:sans-serif;font-variant-ligatures:normal;font-variant-position:normal;font-variant-caps:normal;font-variant-numeric:normal;font-variant-alternates:normal;font-variant-east-asian:normal;font-feature-settings:normal;font-variation-settings:normal;text-indent:0;text-align:start;text-decoration:none;text-decoration-line:none;text-decoration-style:solid;text-decoration-color:#000000;letter-spacing:normal;word-spacing:normal;text-transform:none;writing-mode:lr-tb;direction:ltr;text-orientation:mixed;dominant-baseline:auto;baseline-shift:baseline;text-anchor:start;white-space:normal;shape-padding:0;shape-margin:0;inline-size:0;opacity:0.375331;vector-effect:none;fill:#0066ff;fill-opacity:1;stroke:none;stroke-width:0.999999;stroke-linecap:butt;stroke-linejoin:miter;stroke-miterlimit:4;stroke-dasharray:none;stroke-dashoffset:0;stroke-opacity:1;paint-order:markers stroke fill;stop-color:#000000;stop-opacity:1"
       x="143.11282"
       y="439.47864"
       id="text1195"
       transform="matrix(0.26458333,0,0,0.26458333,-1.9130748,0.07319068)"><tspan
         sodipodi:role="line"
         id="tspan1193"
         x="143.11282"
         y="439.47864">x=x<tspan
   style="font-size:65%;baseline-shift:sub;fill:#0066ff"
   id="tspan1197">0</tspan></tspan></text>
    <text
       xml:space="preserve"
       style="font-style:normal;font-variant:normal;font-weight:normal;font-stretch:normal;font-size:13.3333px;line-height:1.25;font-family:sans-serif;font-variant-ligatures:normal;font-variant-position:normal;font-variant-caps:normal;font-variant-numeric:normal;font-variant-alternates:normal;font-variant-east-asian:normal;font-feature-settings:normal;font-variation-settings:normal;text-indent:0;text-align:start;text-decoration:none;text-decoration-line:none;text-decoration-style:solid;text-decoration-color:#000000;letter-spacing:normal;word-spacing:normal;text-transform:none;writing-mode:lr-tb;direction:ltr;text-orientation:mixed;dominant-baseline:auto;baseline-shift:baseline;text-anchor:start;white-space:normal;shape-padding:0;shape-margin:0;inline-size:0;opacity:0.375331;vector-effect:none;fill:#ff7f2a;fill-opacity:1;stroke:none;stroke-width:0.999999;stroke-linecap:butt;stroke-linejoin:miter;stroke-miterlimit:4;stroke-dasharray:none;stroke-dashoffset:0;stroke-opacity:1;paint-order:markers stroke fill;stop-color:#000000;stop-opacity:1"
       x="143.11282"
       y="439.47864"
       id="text1203"
       transform="matrix(0.26458333,0,0,0.26458333,23.156666,-0.52274438)"><tspan
         sodipodi:role="line"
         id="tspan1201"
         x="143.11282"
         y="439.47864">x=x<tspan
   style="font-size:65%;baseline-shift:sub;fill:#ff7f2a"
   id="tspan1199">1</tspan></tspan></text>
    <path
       style="font-variation-settings:normal;opacity:1;vector-effect:none;fill:#44aa00;fill-opacity:1;stroke:none;stroke-width:0.908;stroke-linecap:butt;stroke-linejoin:round;stroke-miterlimit:10;stroke-dasharray:none;stroke-dashoffset:0;stroke-opacity:1;paint-order:markers stroke fill;stop-color:#000000;stop-opacity:1"
       id="path1205"
       d="m 30.602138,156.0712 c 0.114707,0.0152 0.230156,0.0235 0.34554,0.0315 0.172686,0.0107 0.342604,-0.0256 0.511853,-0.0541 0.217903,-0.0326 0.422836,-0.10842 0.622464,-0.1988 0.230232,-0.11254 0.455782,-0.23402 0.674663,-0.36725 0.217401,-0.14507 0.439095,-0.28288 0.663324,-0.41709 0.267457,-0.16213 0.543362,-0.30871 0.819965,-0.45437 0.327414,-0.17 0.647644,-0.35334 0.965988,-0.53962 0.365321,-0.21666 0.724498,-0.44403 1.076778,-0.6813 0.373999,-0.25187 0.717883,-0.54404 1.062887,-0.83333 0.390204,-0.32729 0.778824,-0.65638 1.151117,-1.00401 0.415062,-0.38723 0.774753,-0.82703 1.132562,-1.26611 0.367514,-0.45506 0.724903,-0.91814 1.087467,-1.37713 0.406892,-0.52256 0.81762,-1.04209 1.227256,-1.56249 0.396851,-0.50797 0.767408,-1.03519 1.121048,-1.5739 0.340135,-0.50997 0.618783,-1.05625 0.885409,-1.60706 0.24447,-0.50612 0.459574,-1.02541 0.66398,-1.54874 0.207217,-0.51155 0.368729,-1.03939 0.516604,-1.57059 0.145929,-0.52491 0.26012,-1.05757 0.357492,-1.59338 0.08871,-0.52938 0.171302,-1.0597 0.251616,-1.59041 0.07183,-0.54311 0.15848,-1.08359 0.265541,-1.62082 0.106437,-0.54933 0.219732,-1.09726 0.341519,-1.64339 0.11598,-0.5596 0.243054,-1.11654 0.391422,-1.66845 0.160922,-0.56986 0.352235,-1.13051 0.535414,-1.69346 0.183232,-0.55584 0.394038,-1.10195 0.599942,-1.64963 0.206444,-0.53302 0.379553,-1.07775 0.560438,-1.61969 0.182915,-0.52815 0.344713,-1.06274 0.491461,-1.60192 0.142997,-0.54075 0.261911,-1.08719 0.383244,-1.63304 0.11553,-0.53466 0.23531,-1.06841 0.366122,-1.59954 0.134942,-0.53282 0.27818,-1.06343 0.421613,-1.59401 0.147362,-0.52507 0.291021,-1.05113 0.429691,-1.57857 0.117309,-0.46984 0.239768,-0.93815 0.37633,-1.40277 0.112073,-0.38332 0.267105,-0.75099 0.437529,-1.11141 0.128415,-0.27862 0.300331,-0.53166 0.494149,-0.76822 0.186825,-0.21406 0.425918,-0.37267 0.67083,-0.51248 0.241247,-0.1341 0.49716,-0.23887 0.766148,-0.30078 0.292801,-0.0613 0.576977,0.003 0.853641,0.0985 0.347044,0.12576 0.665631,0.3074 0.962488,0.52465 0.333113,0.27908 0.610839,0.61644 0.8826,0.95357 0.314312,0.39097 0.580218,0.81684 0.833276,1.249 0.281041,0.4814 0.503177,0.9924 0.717137,1.50601 0.223883,0.53544 0.382165,1.09395 0.522201,1.65609 0.149899,0.57567 0.255021,1.1611 0.365318,1.74517 0.109381,0.60391 0.216207,1.20823 0.340894,1.80921 0.121629,0.63184 0.287063,1.25386 0.453515,1.87501 0.160792,0.61723 0.326749,1.23311 0.494151,1.84858 0.165518,0.63392 0.33097,1.26799 0.481931,1.90556 0.144621,0.63732 0.293915,1.27353 0.447244,1.9088 0.145677,0.60316 0.289097,1.20687 0.457065,1.80429 0.179083,0.6299 0.439414,1.2324 0.68885,1.83666 0.250672,0.61971 0.505521,1.23771 0.775857,1.84912 0.272309,0.61826 0.550775,1.23364 0.849079,1.83983 0.292434,0.59366 0.61576,1.17091 0.964877,1.73289 0.368052,0.56384 0.736706,1.12721 1.100138,1.69405 0.34403,0.53152 0.686022,1.06429 1.026401,1.59816 0.322376,0.50915 0.667824,1.0025 1.032343,1.4822 0.413816,0.54308 0.872297,1.0498 1.329378,1.5563 0.416518,0.44989 0.834747,0.89836 1.262753,1.33737 0.417446,0.41815 0.853546,0.81679 1.296387,1.2077 0.416025,0.35377 0.826807,0.71354 1.238345,1.07251 0.407141,0.36091 0.819666,0.71552 1.234038,1.06808 0.412372,0.35321 0.832085,0.69737 1.258377,1.0336 0.407265,0.31029 0.85312,0.56423 1.303004,0.8065 0.400053,0.23123 0.819753,0.42085 1.250733,0.5858 0.440108,0.17493 0.903089,0.26911 1.368253,0.34695 0.390562,0.0602 0.783005,0.10691 1.173435,0.16806 0.435546,0.0681 0.531876,-0.54785 0.09633,-0.61596 v 0 c -0.388328,-0.0607 -0.778533,-0.10773 -1.167058,-0.16703 -0.424334,-0.0707 -0.847066,-0.15439 -1.248468,-0.31441 -0.406215,-0.15487 -0.801087,-0.33419 -1.177759,-0.5524 -0.418144,-0.22491 -0.833061,-0.45991 -1.212381,-0.74702 -0.420243,-0.33144 -0.833972,-0.67071 -1.240468,-1.01893 -0.412421,-0.35089 -0.823012,-0.70385 -1.228224,-1.06307 -0.410623,-0.35815 -0.820436,-0.71718 -1.235583,-1.07009 -0.431205,-0.38059 -0.855914,-0.76861 -1.262589,-1.17553 -0.422477,-0.4332 -0.835078,-0.87595 -1.246289,-1.31982 -0.445375,-0.4935 -0.892481,-0.98692 -1.295908,-1.51593 -0.354367,-0.46589 -0.689668,-0.94543 -1.002958,-1.44005 -0.340659,-0.5343 -0.682943,-1.06753 -1.027256,-1.59949 -0.361868,-0.5644 -0.728778,-1.12546 -1.095502,-1.68671 -0.33865,-0.54432 -0.651406,-1.10397 -0.934997,-1.67908 -0.294709,-0.59846 -0.569251,-1.20626 -0.838253,-1.81665 -0.268351,-0.60662 -0.520915,-1.21997 -0.769753,-1.83483 -0.240149,-0.58176 -0.491738,-1.16151 -0.664995,-1.76767 -0.166167,-0.58983 -0.306994,-1.18617 -0.451155,-1.78167 -0.153125,-0.63441 -0.302178,-1.26978 -0.44663,-1.90623 -0.152669,-0.64421 -0.319577,-1.28498 -0.487,-1.92549 -0.167206,-0.61472 -0.332943,-1.22986 -0.493545,-1.84633 -0.163396,-0.60968 -0.32606,-1.22014 -0.445278,-1.84035 -0.124063,-0.59729 -0.229786,-1.19801 -0.338709,-1.79819 -0.112543,-0.59586 -0.220157,-1.19304 -0.37302,-1.78035 -0.147934,-0.59237 -0.315453,-1.18077 -0.551622,-1.74499 -0.224835,-0.53954 -0.459291,-1.07588 -0.754745,-1.58145 -0.268986,-0.45864 -0.551882,-0.91037 -0.885905,-1.3252 -0.306274,-0.37948 -0.620702,-0.75819 -1.001233,-1.06641 -0.349063,-0.25241 -0.721935,-0.466 -1.129337,-0.61096 -0.389909,-0.12942 -0.789364,-0.20553 -1.198219,-0.11435 -0.326255,0.0799 -0.639635,0.20039 -0.932272,0.36679 -0.309955,0.17948 -0.60969,0.38369 -0.843249,0.65908 -0.224335,0.27665 -0.425167,0.57107 -0.574532,0.89574 -0.18392,0.38978 -0.350903,0.78753 -0.471956,1.20192 -0.138154,0.47036 -0.262485,0.94435 -0.381127,1.41999 -0.138303,0.52605 -0.281629,1.0507 -0.428576,1.5744 -0.144661,0.53511 -0.289102,1.07027 -0.425138,1.60766 -0.13186,0.53573 -0.252891,1.07404 -0.36935,1.61332 -0.119195,0.53633 -0.235924,1.07326 -0.376224,1.60462 -0.143598,0.52789 -0.302112,1.05121 -0.481267,1.56824 -0.17839,0.53456 -0.348977,1.07191 -0.552625,1.59766 -0.209198,0.55644 -0.423246,1.11133 -0.609227,1.67612 -0.186528,0.57325 -0.381317,1.14418 -0.544663,1.72462 -0.150492,0.56061 -0.280191,1.12612 -0.397822,1.69452 -0.122788,0.55076 -0.23713,1.10331 -0.344456,1.65729 -0.10882,0.54671 -0.197519,1.09664 -0.270528,1.64931 -0.0794,0.52468 -0.161057,1.04895 -0.248611,1.57234 -0.09377,0.51709 -0.203999,1.0311 -0.344715,1.53767 -0.142023,0.51104 -0.297206,1.01885 -0.496694,1.51087 -0.198427,0.50818 -0.407104,1.01249 -0.64444,1.50396 -0.254717,0.52654 -0.520256,1.04915 -0.845442,1.53657 -0.343683,0.52385 -0.703998,1.03638 -1.08971,1.53035 -0.409414,0.52013 -0.819928,1.03937 -1.226598,1.56165 -0.360598,0.45652 -0.716084,0.91708 -1.081535,1.36975 -0.340003,0.41726 -0.680802,0.83614 -1.074949,1.20444 -0.363826,0.34032 -0.744654,0.66138 -1.126016,0.98179 -0.328319,0.27531 -0.655053,0.55405 -1.010751,0.79407 -0.341167,0.23011 -0.689417,0.45006 -1.043228,0.6602 -0.310296,0.18162 -0.622414,0.3604 -0.941586,0.52607 -0.286647,0.15095 -0.572392,0.30321 -0.849651,0.47106 -0.225677,0.13508 -0.449099,0.2734 -0.667697,0.41972 -0.197422,0.1206 -0.401299,0.22968 -0.608664,0.33225 -0.14987,0.0689 -0.302927,0.12757 -0.467299,0.1513 -0.120983,0.0203 -0.242398,0.049 -0.365636,0.0469 -0.102544,-0.007 -0.205171,-0.0142 -0.307125,-0.0276 -0.437084,-0.0575 -0.518324,0.56068 -0.08124,0.61813 z" />
    <path
       style="font-variation-settings:normal;opacity:1;vector-effect:none;fill:#ff2ad4;fill-opacity:1;stroke:none;stroke-width:0.908;stroke-linecap:butt;stroke-linejoin:round;stroke-miterlimit:10;stroke-dasharray:none;stroke-dashoffset:0;stroke-opacity:1;paint-order:markers stroke fill;stop-color:#000000;stop-opacity:1"
       id="path1211"
       d="m 23.539678,155.86763 c 0.09023,0.0224 0.1819,0.0375 0.274277,0.0472 0.187266,0.006 0.372426,-0.0351 0.555174,-0.0716 0.221626,-0.0453 0.442237,-0.0958 0.662778,-0.14623 0.276012,-0.0602 0.550913,-0.12553 0.825291,-0.19275 0.350353,-0.0768 0.690789,-0.19054 1.030219,-0.30495 0.395757,-0.13408 0.785814,-0.28354 1.172181,-0.44244 0.427982,-0.17471 0.83906,-0.38638 1.231966,-0.6293 0.394639,-0.24868 0.759412,-0.53926 1.117841,-0.83659 0.379746,-0.31119 0.711554,-0.67345 1.035648,-1.0406 0.342844,-0.39158 0.661265,-0.80337 0.966742,-1.22446 0.300424,-0.42628 0.600123,-0.85302 0.910156,-1.2724 0.324255,-0.41811 0.627309,-0.85122 0.929399,-1.28535 0.314537,-0.43975 0.581039,-0.91029 0.835594,-1.38641 0.253283,-0.46262 0.464677,-0.94587 0.666443,-1.43259 0.190424,-0.46689 0.375611,-0.93589 0.565608,-1.40295 0.176337,-0.439 0.393531,-0.85963 0.610804,-1.2793 0.218707,-0.40346 0.420592,-0.81522 0.607264,-1.23435 0.17281,-0.3862 0.342603,-0.77373 0.514866,-1.16017 0.151778,-0.35867 0.305194,-0.71655 0.462108,-1.073 0.137392,-0.30727 0.271219,-0.61617 0.412062,-0.92187 0.117424,-0.2514 0.258347,-0.49016 0.411781,-0.72096 0.147251,-0.20816 0.302895,-0.4101 0.464992,-0.60686 0.149897,-0.18195 0.300585,-0.36329 0.452774,-0.54334 0.143946,-0.16641 0.306514,-0.31508 0.467849,-0.46419 0.141783,-0.13013 0.290444,-0.25183 0.450112,-0.35927 0.11888,-0.0698 0.245734,-0.12752 0.378928,-0.16354 0.133221,-0.0316 0.27078,-0.0452 0.407448,-0.0503 0.161764,-0.002 0.320874,0.0483 0.476613,0.0881 0.203668,0.0465 0.402889,0.11007 0.599918,0.17906 0.215665,0.0684 0.417886,0.16855 0.618623,0.27133 0.218932,0.11802 0.43688,0.2386 0.649084,0.36841 0.217032,0.13022 0.437975,0.25372 0.656092,0.38208 0.221231,0.12684 0.441397,0.25553 0.658762,0.3889 0.243211,0.14681 0.486791,0.29298 0.730473,0.439 0.260728,0.15193 0.515276,0.31391 0.769604,0.47621 0.257558,0.16569 0.513543,0.33376 0.771297,0.49914 0.236204,0.15055 0.486077,0.27697 0.736833,0.40095 0.234415,0.11195 0.466693,0.22847 0.707165,0.32696 0.233408,0.0946 0.473381,0.17125 0.711287,0.25341 0.300506,0.1014 0.606658,0.18053 0.918988,0.23463 0.342788,0.0566 0.689776,0.0775 1.03629,0.0955 0.345451,0.0159 0.691111,0.0269 1.036794,0.0361 0.336881,0.004 0.673703,-0.002 1.010261,-0.0162 0.311521,-0.009 0.617181,-0.0638 0.921018,-0.12856 0.262884,-0.0613 0.523425,-0.13172 0.784531,-0.19997 0.305592,-0.0745 0.608024,-0.16094 0.90763,-0.25655 0.306398,-0.0989 0.598895,-0.23378 0.890145,-0.36968 0.263089,-0.13164 0.524203,-0.26712 0.787178,-0.39901 0.278882,-0.1341 0.557459,-0.26854 0.838274,-0.39854 0.303469,-0.1349 0.59822,-0.28759 0.893395,-0.43942 0.283615,-0.14815 0.568616,-0.29339 0.847807,-0.44978 0.283628,-0.15115 0.528389,-0.35899 0.774298,-0.56304 0.263676,-0.21498 0.512619,-0.44689 0.760865,-0.67925 0.221673,-0.20286 0.440965,-0.40817 0.666096,-0.60721 0.172593,-0.15546 0.365906,-0.28485 0.563049,-0.40662 0.148442,-0.0912 0.304837,-0.16803 0.467469,-0.23013 0.156226,-0.052 0.315293,-0.0977 0.477904,-0.12433 0.185724,-0.0305 0.373761,0.004 0.557326,0.0335 0.216606,0.0383 0.429247,0.0962 0.637865,0.16533 0.219332,0.0724 0.4357,0.15269 0.645054,0.25034 0.23091,0.10491 0.44568,0.24012 0.656924,0.37944 0.217662,0.13993 0.405352,0.31839 0.592169,0.49582 0.199493,0.17718 0.382029,0.37108 0.560954,0.56856 0.174998,0.19076 0.357769,0.37433 0.531503,0.56621 0.176752,0.19322 0.336756,0.40071 0.495194,0.60893 0.161941,0.21308 0.309086,0.43671 0.451069,0.66339 0.209516,0.31621 0.404069,0.64189 0.603184,0.96464 0.196398,0.33124 0.401077,0.65725 0.610428,0.98043 0.203185,0.31103 0.416979,0.61488 0.634268,0.91617 0.239283,0.33 0.50574,0.63892 0.760121,0.95714 0.273608,0.35133 0.546288,0.70339 0.817822,1.05633 0.295891,0.39499 0.594976,0.78763 0.889696,1.1835 0.308618,0.41086 0.617206,0.82172 0.926023,1.23242 0.337426,0.45195 0.672531,0.90562 1.011639,1.35631 0.336315,0.44405 0.677641,0.88425 1.020612,1.32317 0.306279,0.38513 0.618395,0.76554 0.934569,1.14257 0.288116,0.34365 0.578827,0.68511 0.866013,1.02956 0.281065,0.3368 0.558348,0.67659 0.846064,1.00776 0.27033,0.31256 0.55912,0.60826 0.846502,0.90495 0.22768,0.24178 0.473054,0.46481 0.722099,0.68403 0.204134,0.18316 0.417949,0.35521 0.633531,0.52462 0.181195,0.1396 0.370835,0.26777 0.560134,0.39602 0.176286,0.11618 0.366469,0.20746 0.557458,0.29621 0.18937,0.089 0.385077,0.16204 0.584446,0.22497 0.186767,0.056 0.373121,0.11317 0.561563,0.16336 0.157231,0.04 0.313883,0.0819 0.472159,0.11765 0.09969,0.0209 0.04999,0.0109 0.149098,0.0302 0.432742,0.0841 0.551709,-0.52786 0.11897,-0.61199 v 0 c -0.08702,-0.0169 -0.04336,-0.008 -0.130971,-0.0264 -0.150556,-0.0339 -0.29944,-0.0741 -0.449022,-0.11197 -0.179456,-0.0477 -0.356775,-0.10244 -0.534662,-0.15555 -0.173699,-0.0545 -0.343985,-0.11816 -0.508876,-0.19568 -0.160787,-0.0747 -0.321548,-0.15012 -0.470572,-0.24702 -0.177218,-0.11996 -0.354764,-0.23985 -0.524645,-0.37011 -0.20651,-0.16211 -0.411237,-0.32689 -0.606679,-0.50229 -0.236638,-0.2083 -0.470133,-0.41982 -0.686231,-0.64983 -0.279564,-0.2886 -0.560673,-0.57609 -0.823693,-0.88009 -0.284985,-0.32793 -0.559388,-0.66463 -0.837835,-0.9981 -0.287578,-0.34489 -0.578654,-0.68681 -0.867153,-1.03091 -0.311571,-0.37152 -0.61912,-0.74639 -0.921012,-1.12583 -0.340638,-0.43594 -0.679654,-0.87313 -1.013693,-1.31416 -0.33908,-0.45062 -0.674108,-0.90426 -1.011515,-1.35613 -0.308229,-0.40992 -0.616234,-0.82001 -0.924269,-1.23008 -0.296728,-0.39845 -0.597694,-0.79377 -0.895626,-1.19133 -0.273912,-0.35602 -0.548936,-0.71118 -0.825026,-1.06552 -0.248028,-0.3101 -0.507593,-0.61132 -0.741407,-0.93251 -0.211252,-0.29283 -0.419095,-0.58816 -0.616667,-0.89043 -0.206886,-0.31931 -0.409017,-0.64149 -0.603071,-0.96879 -0.199898,-0.324 -0.395181,-0.65096 -0.605514,-0.96839 -0.152125,-0.24256 -0.309748,-0.48184 -0.483201,-0.70984 -0.169336,-0.22251 -0.340754,-0.44389 -0.529653,-0.65036 -0.174046,-0.1914 -0.355727,-0.37574 -0.531183,-0.56586 -0.189429,-0.20902 -0.382895,-0.41414 -0.59368,-0.60206 -0.213548,-0.20268 -0.429726,-0.40447 -0.678397,-0.56429 -0.237009,-0.15604 -0.478438,-0.30658 -0.737312,-0.42427 -0.231547,-0.10717 -0.469874,-0.19746 -0.712346,-0.27696 -0.240167,-0.0789 -0.48464,-0.14576 -0.734004,-0.18879 -0.251651,-0.0404 -0.508156,-0.0774 -0.762072,-0.0325 -0.20289,0.0359 -0.402619,0.0886 -0.597003,0.15721 -0.198154,0.0772 -0.389927,0.16941 -0.570918,0.28156 -0.226959,0.14069 -0.448992,0.29066 -0.647935,0.46971 -0.229529,0.20296 -0.453218,0.4122 -0.679178,0.61911 -0.239172,0.22388 -0.478816,0.44756 -0.73293,0.65462 -0.216828,0.17993 -0.430707,0.36583 -0.681006,0.49897 -0.272632,0.1529 -0.551238,0.29433 -0.828153,0.43923 -0.287507,0.14788 -0.57448,0.29683 -0.870143,0.42806 -0.286724,0.13274 -0.571172,0.27 -0.855869,0.40702 -0.25772,0.12927 -0.513774,0.26174 -0.771308,0.39134 -0.26728,0.12474 -0.535276,0.24955 -0.816327,0.34079 -0.288909,0.0925 -0.580824,0.1753 -0.875565,0.24723 -0.251904,0.0659 -0.503295,0.13374 -0.756809,0.1934 -0.269867,0.0576 -0.54094,0.10847 -0.817803,0.11543 -0.322112,0.0139 -0.644461,0.0191 -0.966885,0.0159 -0.340487,-0.009 -0.68094,-0.0199 -1.021191,-0.0355 -0.321895,-0.0166 -0.644298,-0.0352 -0.962819,-0.0873 -0.279247,-0.0476 -0.552392,-0.11949 -0.821105,-0.20948 -0.227262,-0.0785 -0.456544,-0.15158 -0.679654,-0.24153 -0.226938,-0.0918 -0.444671,-0.20414 -0.666009,-0.30843 -0.23002,-0.11372 -0.459618,-0.22893 -0.676457,-0.36679 -0.258189,-0.16566 -0.514596,-0.33403 -0.772602,-0.49997 -0.259263,-0.16545 -0.518792,-0.3305 -0.784535,-0.48545 -0.241831,-0.1449 -0.48356,-0.28996 -0.724926,-0.43564 -0.220663,-0.13533 -0.444042,-0.26612 -0.668629,-0.39483 -0.215236,-0.12659 -0.433125,-0.24862 -0.647395,-0.37686 -0.225738,-0.13753 -0.456851,-0.26642 -0.689825,-0.39123 -0.226168,-0.11575 -0.454747,-0.22706 -0.697306,-0.30502 -0.214059,-0.0745 -0.430202,-0.14383 -0.651294,-0.19454 -0.214868,-0.0547 -0.43354,-0.11628 -0.657285,-0.10681 -0.185931,0.009 -0.372711,0.0267 -0.553207,0.0741 -0.195056,0.058 -0.383551,0.13694 -0.555892,0.24631 -0.185158,0.12583 -0.359386,0.26585 -0.523904,0.41779 -0.180097,0.16648 -0.360842,0.33319 -0.520833,0.51958 -0.153905,0.18211 -0.306297,0.36551 -0.457922,0.54951 -0.175583,0.21336 -0.344384,0.43223 -0.503187,0.65844 -0.170746,0.25778 -0.327954,0.5242 -0.458568,0.80487 -0.142214,0.30894 -0.277662,0.62095 -0.416385,0.93147 -0.156525,0.35557 -0.309695,0.71251 -0.460936,1.07035 -0.172302,0.38654 -0.342144,0.77416 -0.514991,1.16045 -0.181557,0.40802 -0.378462,0.80859 -0.591354,1.20127 -0.226002,0.43654 -0.451281,0.87437 -0.634653,1.33102 -0.189466,0.46581 -0.374216,0.93353 -0.564058,1.39918 -0.193876,0.46795 -0.396679,0.93273 -0.640334,1.37739 -0.242966,0.45474 -0.496895,0.90442 -0.797509,1.32421 -0.298673,0.42927 -0.598266,0.85753 -0.919001,1.27086 -0.311092,0.42094 -0.612162,0.84903 -0.913503,1.27697 -0.293683,0.40512 -0.599906,0.80122 -0.929519,1.17797 -0.302596,0.34308 -0.61156,0.68249 -0.96624,0.97328 -0.336446,0.27916 -0.678222,0.55277 -1.048453,0.78664 -0.362982,0.2261 -0.744715,0.42004 -1.140482,0.5825 -0.373818,0.15383 -0.751224,0.29846 -1.134145,0.42823 -0.322716,0.10881 -0.646227,0.21755 -0.979456,0.2902 -0.27124,0.0665 -0.543016,0.13104 -0.815883,0.19052 -0.214996,0.0492 -0.430109,0.0984 -0.646164,0.14267 -0.124102,0.025 -0.249021,0.0503 -0.375125,0.0621 -0.08456,-0.005 -0.166269,-0.0314 -0.24969,-0.0444 -0.436988,-0.0582 -0.519247,0.55983 -0.08226,0.618 z" />
    <text
       xml:space="preserve"
       style="font-style:normal;font-variant:normal;font-weight:normal;font-stretch:normal;font-size:13.3333px;line-height:1.25;font-family:sans-serif;font-variant-ligatures:normal;font-variant-position:normal;font-variant-caps:normal;font-variant-numeric:normal;font-variant-alternates:normal;font-variant-east-asian:normal;font-feature-settings:normal;font-variation-settings:normal;text-indent:0;text-align:start;text-decoration:none;text-decoration-line:none;text-decoration-style:solid;text-decoration-color:#000000;letter-spacing:normal;word-spacing:normal;text-transform:none;writing-mode:lr-tb;direction:ltr;text-orientation:mixed;dominant-baseline:auto;baseline-shift:baseline;text-anchor:start;white-space:normal;shape-padding:0;shape-margin:0;inline-size:0;opacity:1;vector-effect:none;fill:#000000;fill-opacity:1;stroke:none;stroke-width:0.999999;stroke-linecap:butt;stroke-linejoin:miter;stroke-miterlimit:4;stroke-dasharray:none;stroke-dashoffset:0;stroke-opacity:1;paint-order:markers stroke fill;stop-color:#000000;stop-opacity:1"
       x="197.87743"
       y="66.337318"
       id="text1259"
       transform="matrix(0.26458333,0,0,0.26458333,14.00857,95.505897)"><tspan
         sodipodi:role="line"
         id="tspan1257"
         x="197.87743"
         y="66.337318">How should the </tspan><tspan
         sodipodi:role="line"
         x="197.87743"
         y="83.003944"
         id="tspan1261">interpolation</tspan><tspan
         sodipodi:role="line"
         x="197.87743"
         y="99.67057"
         id="tspan1263">look like?</tspan></text>
    <path
       style="font-variation-settings:normal;opacity:1;vector-effect:none;fill:#44aa00;fill-opacity:1;stroke:none;stroke-width:0.908;stroke-linecap:butt;stroke-linejoin:round;stroke-miterlimit:10;stroke-dasharray:none;stroke-dashoffset:0;stroke-opacity:1;paint-order:markers stroke fill;stop-color:#000000;stop-opacity:1"
       id="path1265"
       d="m 65.710548,122.15431 c -0.127598,0.0285 -0.25111,0.0723 -0.376994,0.10745 -0.175654,0.045 -0.352602,0.0846 -0.528516,0.1286 -0.23219,0.0623 -0.465026,0.12103 -0.699262,0.17506 -0.283067,0.0631 -0.567391,0.12028 -0.851519,0.17836 -0.295217,0.0611 -0.588774,0.13017 -0.881769,0.20108 -0.248999,0.0586 -0.496244,0.12458 -0.742534,0.19359 -0.125191,0.0373 -0.2535,0.0716 -0.367409,0.13763 -0.151751,0.088 -0.02381,0.0219 -0.0783,0.0498 0.137208,-0.0733 0.216096,-0.009 0.292762,0.0918 0.004,0.005 0.0037,0.0133 0.0084,0.018 0.01035,0.0102 0.0084,-0.0279 0.01106,-0.0422 0.02588,-0.16322 0.06732,-0.32322 0.112675,-0.48193 0.06249,-0.19248 0.138859,-0.38008 0.213595,-0.56804 0.04233,-0.11369 0.08451,-0.22814 0.09674,-0.34937 -0.06337,-0.23552 -0.0062,-0.19434 -0.413271,-0.16758 -0.0357,0.002 -0.108487,0.18039 -0.123126,0.21726 -0.0385,0.10237 -0.06366,0.20897 -0.09265,0.31426 -0.03225,0.11083 -0.07148,0.21938 -0.104966,0.32985 -0.04241,0.13327 -0.07677,0.26673 -0.08555,0.40654 -0.0027,0.15591 0.06075,0.29388 0.140785,0.42335 0.06865,0.10813 0.15971,0.19798 0.256765,0.28034 0.09978,0.0827 0.20624,0.1539 0.32249,0.21097 0.109601,0.0507 0.225658,0.0843 0.340066,0.12186 0.102606,0.032 0.204817,0.0655 0.306012,0.10174 0.107093,0.037 0.212818,0.0776 0.32053,0.11278 0.06181,0.0233 0.124169,0.0449 0.18683,0.0658 0.310533,0.1031 0.456332,-0.33606 0.145801,-0.43916 v 0 c -0.06357,-0.0211 -0.126614,-0.0435 -0.189471,-0.0666 -0.103629,-0.0336 -0.205068,-0.0733 -0.308141,-0.10856 -0.105098,-0.0374 -0.211029,-0.0726 -0.317564,-0.10569 -0.09518,-0.0311 -0.191728,-0.0588 -0.283583,-0.0991 -0.0824,-0.0381 -0.154342,-0.0917 -0.225216,-0.14814 -0.06109,-0.0506 -0.119076,-0.10574 -0.162819,-0.17249 -0.03111,-0.0479 -0.0645,-0.0994 -0.07017,-0.15739 -0.0019,-0.10071 0.04386,-0.19557 0.06614,-0.29216 0.03447,-0.11421 0.07574,-0.22618 0.108188,-0.341 0.02453,-0.0891 0.04584,-0.1792 0.07661,-0.26639 0.0072,-0.0183 0.01738,-0.0358 0.02098,-0.0551 0.0011,-0.005 -0.0087,0.008 -0.01363,0.007 -0.111969,-0.0201 -0.233722,-0.0162 -0.334054,-0.0699 -0.03753,-0.02 -0.01947,-0.0828 -0.02919,-0.12427 0.0013,-0.006 0.0028,-0.0126 0.0037,-0.019 0.0031,-0.023 -0.0021,0.0166 -0.0089,0.0417 -0.01635,0.0604 -0.03847,0.11898 -0.05928,0.17787 -0.08047,0.20236 -0.162671,0.4044 -0.228594,0.6121 -0.05027,0.17658 -0.09604,0.35462 -0.12468,0.53617 -0.03571,0.2431 -0.0141,0.40884 0.289986,0.43583 0.03007,0.003 0.05704,-0.0198 0.08557,-0.0297 0.10989,-0.0654 0.209521,-0.11773 0.339879,-0.14292 0.240924,-0.0676 0.482872,-0.13205 0.726466,-0.18939 0.287602,-0.0697 0.575786,-0.13746 0.865569,-0.19747 0.287911,-0.0589 0.576024,-0.11683 0.862846,-0.18082 0.236982,-0.0547 0.472582,-0.11401 0.70748,-0.17704 0.18007,-0.045 0.361272,-0.0854 0.540975,-0.1319 0.105037,-0.0294 0.209579,-0.0612 0.313409,-0.0944 0.324337,-0.0432 0.263237,-0.50188 -0.0611,-0.45868 z" />
    <path
       style="font-variation-settings:normal;opacity:1;vector-effect:none;fill:#ff2ad4;fill-opacity:1;stroke:none;stroke-width:0.908;stroke-linecap:butt;stroke-linejoin:round;stroke-miterlimit:10;stroke-dasharray:none;stroke-dashoffset:0;stroke-opacity:1;paint-order:markers stroke fill;stop-color:#000000;stop-opacity:1"
       id="path1267"
       d="m 69.545758,123.57143 c -0.0088,0.13699 -0.03827,0.27153 -0.0655,0.40573 -0.05063,0.24872 -0.118441,0.49339 -0.181356,0.73916 -0.07935,0.31007 -0.146926,0.62292 -0.223645,0.93366 -0.09193,0.38578 -0.196474,0.76806 -0.313706,1.14687 -0.135977,0.42583 -0.296576,0.84308 -0.435181,1.268 -0.13626,0.42828 -0.236437,0.86653 -0.326504,1.30645 -0.07558,0.37996 -0.133061,0.76317 -0.184941,1.14698 -0.04005,0.3136 -0.08608,0.62586 -0.157186,0.934 -0.0593,0.25737 -0.144,0.50721 -0.236641,0.75414 -0.08062,0.21592 -0.173813,0.4268 -0.256215,0.64199 -0.08065,0.19213 -0.08959,0.39668 -0.07203,0.60112 0.01249,0.13608 0.05646,0.24529 0.156985,0.33733 0.119319,-0.0403 0.246346,-0.0625 0.357958,-0.12088 0.03083,-0.0161 0.05058,-0.31336 0.05255,-0.35802 0.0043,-0.1655 -0.0096,-0.3308 -0.02506,-0.49541 -0.02397,-0.22226 -0.07788,-0.43995 -0.128728,-0.65723 -0.0527,-0.23622 -0.113001,-0.47063 -0.168598,-0.70617 -0.0091,-0.0365 -0.01802,-0.0731 -0.02734,-0.10961 -0.05481,-0.21428 1.61e-4,0.004 -0.0492,-0.18364 -0.01471,-0.0558 -0.02596,-0.10304 -0.01699,-0.0769 -0.0063,0.20651 0.01746,0.0461 -0.444715,0.10203 -5.29e-4,7e-5 0.01977,0.10634 0.02154,0.116 0.0173,0.12506 0.02278,0.25143 0.02962,0.3774 0.0093,0.18227 0.01423,0.36472 0.01886,0.54716 0.0052,0.20912 0.0081,0.41828 0.01072,0.62745 0.0031,0.19565 0.0053,0.39147 0.0159,0.58688 0.0035,0.16483 0.03228,0.32344 0.09148,0.47702 0.07131,0.1633 0.162375,0.26675 0.331931,0.32739 0.149172,0.0294 0.270658,-0.0252 0.375687,-0.12722 0.0654,-0.0798 0.10836,-0.17428 0.165248,-0.26 0.07406,-0.11395 0.15712,-0.22165 0.241165,-0.32832 0.09968,-0.12769 0.194432,-0.2591 0.293235,-0.38745 0.109146,-0.14281 0.215323,-0.28805 0.315479,-0.43733 0.06134,-0.096 0.12161,-0.1926 0.179133,-0.29094 0.164994,-0.28256 -0.234598,-0.51589 -0.399592,-0.23334 v 0 c -0.05261,0.0903 -0.108143,0.17868 -0.1641,0.26692 -0.09413,0.14108 -0.195027,0.27765 -0.29772,0.4126 -0.09761,0.12703 -0.191606,0.25679 -0.28997,0.38325 -0.09212,0.11703 -0.18297,0.2353 -0.264192,0.36027 -0.04065,0.0622 -0.0835,0.12683 -0.112887,0.1943 0.0268,-0.007 0.05338,-0.0114 0.08078,9.8e-4 0.08797,0.0539 -0.0049,0.0155 -0.0241,-0.0518 -0.04442,-0.10588 -0.05545,-0.21759 -0.05954,-0.33186 -0.01066,-0.18881 -0.01188,-0.3781 -0.01524,-0.56715 -0.0027,-0.21112 -0.0056,-0.42225 -0.01082,-0.63333 -0.0047,-0.18691 -0.0099,-0.37384 -0.01939,-0.56058 -0.0079,-0.14566 -0.01437,-0.29185 -0.03662,-0.43619 -0.0021,-0.0108 -0.02492,-0.15628 -0.03108,-0.15705 -0.477639,-0.0599 -0.448398,-0.14965 -0.461624,0.0651 0.0182,0.14816 0.07365,0.28857 0.103979,0.43434 0.05555,0.23526 0.115736,0.4694 0.168399,0.70534 0.04609,0.19679 0.09555,0.39388 0.118573,0.59499 0.01355,0.14415 0.02638,0.28885 0.02339,0.43378 -0.0086,0.25588 -0.10161,0.22884 0.320945,0.12084 0.07425,0.0753 0.05208,0.0996 0.03483,-0.002 -0.01265,-0.13468 -0.01249,-0.26826 0.04337,-0.39475 0.08248,-0.2162 0.176786,-0.4277 0.257246,-0.64472 0.09977,-0.26613 0.190452,-0.53558 0.254336,-0.81292 0.07384,-0.32203 0.123357,-0.64804 0.16479,-0.97575 0.05044,-0.37349 0.106302,-0.74641 0.179716,-1.11617 0.08647,-0.42284 0.182428,-0.84411 0.313121,-1.25583 0.13911,-0.4272 0.301316,-0.84637 0.437296,-1.27465 0.119755,-0.38739 0.22689,-0.77822 0.320881,-1.1727 0.07639,-0.30947 0.143804,-0.62099 0.222679,-0.92983 0.06483,-0.25331 0.134601,-0.50553 0.186578,-0.76193 0.03331,-0.16436 0.06867,-0.32955 0.07473,-0.49769 0,-0.3272 -0.462729,-0.3272 -0.462729,0 z" />
  </g>
</svg>
