<?xml version="1.0" encoding="UTF-8" standalone="no"?>
<svg
   xmlns:dc="http://purl.org/dc/elements/1.1/"
   xmlns:cc="http://creativecommons.org/ns#"
   xmlns:rdf="http://www.w3.org/1999/02/22-rdf-syntax-ns#"
   xmlns:svg="http://www.w3.org/2000/svg"
   xmlns="http://www.w3.org/2000/svg"
   xmlns:sodipodi="http://sodipodi.sourceforge.net/DTD/sodipodi-0.dtd"
   xmlns:inkscape="http://www.inkscape.org/namespaces/inkscape"
   sodipodi:docname="how_to_interpolate_drawing_1.svg"
   inkscape:version="1.0.1 (1.0.1+r74)"
   id="svg8"
   version="1.1"
   viewBox="0 0 89.400864 57.811947"
   height="57.811947mm"
   width="89.400864mm">
  <defs
     id="defs2">
    <marker
       style="overflow:visible"
       id="Arrow1Mend"
       refX="0"
       refY="0"
       orient="auto"
       inkscape:stockid="Arrow1Mend"
       inkscape:isstock="true">
      <path
         transform="matrix(-0.4,0,0,-0.4,-4,0)"
         style="fill-rule:evenodd;stroke:#000000;stroke-width:1pt"
         d="M 0,0 5,-5 -12.5,0 5,5 Z"
         id="path846" />
    </marker>
  </defs>
  <sodipodi:namedview
     inkscape:document-rotation="0"
     inkscape:showpageshadow="false"
     inkscape:snap-tangential="false"
     inkscape:window-maximized="1"
     inkscape:window-y="0"
     inkscape:window-x="0"
     inkscape:window-height="1054"
     inkscape:window-width="1920"
     inkscape:guide-bbox="true"
     showguides="false"
     showgrid="true"
     inkscape:current-layer="layer1"
     inkscape:document-units="mm"
     inkscape:cy="109.48786"
     inkscape:cx="149.13519"
     inkscape:zoom="3.2345166"
     inkscape:pageshadow="2"
     inkscape:pageopacity="0.0"
     borderopacity="1"
     bordercolor="#001cda"
     pagecolor="#ffffff"
     id="base">
    <sodipodi:guide
       inkscape:color="rgb(0,0,255)"
       inkscape:label=""
       inkscape:locked="false"
       id="guide815"
       orientation="1,0"
       position="-0.64924481,-134.03529" />
    <sodipodi:guide
       inkscape:color="rgb(0,0,255)"
       inkscape:label=""
       inkscape:locked="false"
       id="guide817"
       orientation="1,0"
       position="189.35075,-134.03529" />
    <inkscape:grid
       enabled="false"
       dotted="false"
       spacingy="1"
       spacingx="1"
       units="mm"
       id="grid857"
       type="xygrid"
       originx="-10.649245"
       originy="-105.15276" />
  </sodipodi:namedview>
  <metadata
     id="metadata5">
    <rdf:RDF>
      <cc:Work
         rdf:about="">
        <dc:format>image/svg+xml</dc:format>
        <dc:type
           rdf:resource="http://purl.org/dc/dcmitype/StillImage" />
        <dc:title />
        <dc:creator>
          <cc:Agent>
            <dc:title>Matías Senger</dc:title>
          </cc:Agent>
        </dc:creator>
        <cc:license
           rdf:resource="http://creativecommons.org/publicdomain/zero/1.0/" />
      </cc:Work>
      <cc:License
         rdf:about="http://creativecommons.org/publicdomain/zero/1.0/">
        <cc:permits
           rdf:resource="http://creativecommons.org/ns#Reproduction" />
        <cc:permits
           rdf:resource="http://creativecommons.org/ns#Distribution" />
        <cc:permits
           rdf:resource="http://creativecommons.org/ns#DerivativeWorks" />
      </cc:License>
    </rdf:RDF>
  </metadata>
  <g
     id="layer1"
     inkscape:groupmode="layer"
     inkscape:label="Capa 1"
     transform="translate(-10.649244,-105.15276)">
    <rect
       style="font-variation-settings:normal;opacity:1;vector-effect:none;fill:#ffffff;fill-opacity:1;fill-rule:evenodd;stroke:none;stroke-width:0.264999;stroke-linecap:butt;stroke-linejoin:miter;stroke-miterlimit:4;stroke-dasharray:none;stroke-dashoffset:0;stroke-opacity:1;stop-color:#000000;stop-opacity:1"
       id="rect856"
       width="89.400864"
       height="57.811947"
       x="10.649244"
       y="105.15276" />
    <path
       style="fill:none;stroke:#000000;stroke-width:0.265;stroke-linecap:butt;stroke-linejoin:miter;stroke-miterlimit:4;stroke-dasharray:none;stroke-opacity:1;marker-end:url(#Arrow1Mend)"
       d="m 20.176315,156.43557 h 69.80338"
       id="path10" />
    <path
       style="fill:none;stroke:#000000;stroke-width:0.265;stroke-linecap:butt;stroke-linejoin:miter;stroke-miterlimit:4;stroke-dasharray:none;stroke-opacity:1;marker-end:url(#Arrow1Mend)"
       d="m 20.176315,156.43557 v -47.3684"
       id="path12" />
    <path
       style="font-variation-settings:normal;opacity:1;vector-effect:none;fill:#0066ff;fill-opacity:1;stroke:none;stroke-width:0.908;stroke-linecap:butt;stroke-linejoin:round;stroke-miterlimit:10;stroke-dasharray:none;stroke-dashoffset:0;stroke-opacity:1;paint-order:markers stroke fill;stop-color:#000000;stop-opacity:1"
       id="path1177"
       d="m 21.324109,155.46867 c 0.252081,0.027 0.505253,0.008 0.756922,-0.0131 0.408569,-0.0291 0.814498,-0.0692 1.217129,-0.1452 0.48866,-0.0915 0.954229,-0.25939 1.404535,-0.46621 0.506234,-0.23683 0.956072,-0.56815 1.389405,-0.91684 0.483062,-0.40058 0.935741,-0.83532 1.376232,-1.28171 0.498081,-0.50495 0.894549,-1.09216 1.260803,-1.69597 0.397267,-0.65282 0.623486,-1.33616 0.806352,-2.07244 0.167101,-0.78396 0.319183,-1.57102 0.480695,-2.35616 0.133877,-0.74399 0.310994,-1.47819 0.49235,-2.21166 0.170866,-0.70195 0.315786,-1.40973 0.487781,-2.11141 0.186409,-0.69167 0.345908,-1.38981 0.48918,-2.09155 0.141155,-0.70876 0.21935,-1.42742 0.268311,-2.14776 0.03563,-0.69264 0.03696,-1.38634 0.0523,-2.07957 0.0019,-0.60812 0.107741,-1.20761 0.219528,-1.80318 0.120822,-0.59314 0.298246,-1.17252 0.46973,-1.75242 0.171307,-0.57877 0.340545,-1.15808 0.497256,-1.74099 0.140332,-0.56942 0.287438,-1.13711 0.432268,-1.70539 0.145597,-0.60536 0.307475,-1.20544 0.5158,-1.79227 0.221263,-0.59337 0.467722,-1.1769 0.70807,-1.7627 0.239953,-0.57273 0.497662,-1.13772 0.757798,-1.70149 0.260829,-0.57224 0.541184,-1.13524 0.827905,-1.69486 0.239123,-0.49195 0.515086,-0.9632 0.823661,-1.4144 0.249174,-0.36267 0.557369,-0.67618 0.886532,-0.96574 0.250862,-0.22002 0.528441,-0.40465 0.814064,-0.57567 0.209841,-0.12599 0.434372,-0.22751 0.673079,-0.28302 0.249881,-0.0629 0.501618,-0.0413 0.749933,0.0147 0.35442,0.0924 0.687855,0.24836 1.007935,0.42369 0.365019,0.20086 0.70263,0.44277 1.029936,0.69921 0.341582,0.26098 0.649398,0.55939 0.939374,0.87563 0.324236,0.34289 0.582363,0.7366 0.818456,1.143 0.256509,0.45097 0.480399,0.91947 0.693759,1.39206 0.216204,0.49588 0.427802,0.99372 0.645486,1.48896 0.23687,0.53746 0.459332,1.08099 0.670758,1.62891 0.218252,0.57826 0.425614,1.16055 0.631809,1.74318 0.217808,0.61691 0.452543,1.22763 0.682826,1.83994 0.237204,0.64261 0.484569,1.28139 0.727993,1.92166 0.239408,0.66583 0.511556,1.31734 0.8073,1.95987 0.314211,0.66778 0.642876,1.32832 0.951465,1.99876 0.303464,0.67325 0.60525,1.34702 0.916604,2.01669 0.317397,0.69383 0.676204,1.36706 1.043011,2.03567 0.367866,0.66716 0.743913,1.32966 1.107043,1.99942 0.350311,0.66235 0.690087,1.33025 1.026354,1.99982 0.317849,0.64661 0.624548,1.29857 0.940604,1.94605 0.311639,0.62781 0.610632,1.26175 0.90923,1.89583 0.263596,0.5647 0.52106,1.13225 0.783767,1.69736 0.206801,0.44411 0.406228,0.8916 0.614916,1.33482 0.183438,0.37245 0.386805,0.73474 0.602437,1.08939 0.18356,0.31882 0.400079,0.61512 0.627544,0.90344 0.234585,0.28804 0.495832,0.55348 0.76508,0.80897 0.239588,0.2295 0.510405,0.42147 0.782026,0.61044 0.330589,0.21947 0.677818,0.41277 1.026425,0.60184 0.35433,0.19449 0.727419,0.34764 1.106556,0.48577 0.433099,0.15631 0.883399,0.25447 1.333529,0.34669 0.399743,0.0816 0.802024,0.14691 1.20776,0.18923 0.45335,0.038 0.907227,0.0702 1.361276,0.0987 0.491588,0.0307 0.982281,0.0712 1.472657,0.11695 0.487302,0.0467 0.973095,0.10689 1.458468,0.17016 0.437142,0.057 0.517724,-0.56124 0.08058,-0.61821 v 0 c -0.492919,-0.0643 -0.986274,-0.12534 -1.481154,-0.1727 -0.496617,-0.0463 -0.993563,-0.0873 -1.491406,-0.11841 -0.445619,-0.028 -0.891055,-0.0597 -1.336016,-0.0966 -0.385421,-0.0399 -0.767384,-0.10259 -1.147109,-0.17989 -0.420211,-0.086 -0.840906,-0.17638 -1.245399,-0.32179 -0.350401,-0.12734 -0.695309,-0.26816 -1.022651,-0.44801 -0.328443,-0.17792 -0.655532,-0.35993 -0.96759,-0.56559 -0.245916,-0.17092 -0.491987,-0.34351 -0.709046,-0.55104 -0.247795,-0.23463 -0.488135,-0.47859 -0.704583,-0.74273 -0.211931,-0.26846 -0.414012,-0.544 -0.584387,-0.84135 -0.204431,-0.33553 -0.396611,-0.67868 -0.570966,-1.03087 -0.208301,-0.44227 -0.407154,-0.8889 -0.613608,-1.33203 -0.263158,-0.56604 -0.521002,-1.13454 -0.785075,-1.70016 -0.299839,-0.63671 -0.600093,-1.27327 -0.913005,-1.90369 -0.317095,-0.64959 -0.624708,-1.30372 -0.943732,-1.95238 -0.339212,-0.67539 -0.681929,-1.34912 -1.035415,-2.01717 -0.363643,-0.67066 -0.740101,-1.33412 -1.10853,-2.00214 -0.360204,-0.65646 -0.712695,-1.31736 -1.024266,-1.99864 -0.311017,-0.66894 -0.612415,-1.34202 -0.915604,-2.01453 -0.308623,-0.67044 -0.637021,-1.33111 -0.951486,-1.9988 -0.289949,-0.62962 -0.556419,-1.26811 -0.790858,-1.92071 -0.243166,-0.63956 -0.490255,-1.27765 -0.727202,-1.91956 -0.228854,-0.6085 -0.462153,-1.21541 -0.678641,-1.82847 -0.208158,-0.58815 -0.417488,-1.17595 -0.637902,-1.75965 -0.214919,-0.55678 -0.440912,-1.10915 -0.681651,-1.65532 -0.218538,-0.49715 -0.430837,-0.99698 -0.64805,-1.49471 -0.222316,-0.49199 -0.455594,-0.97971 -0.723101,-1.44903 -0.259278,-0.44475 -0.54324,-0.87525 -0.898038,-1.25102 -0.313388,-0.34097 -0.645792,-0.66303 -1.014299,-0.9449 -0.354549,-0.27739 -0.720767,-0.53855 -1.11602,-0.7558 -0.373364,-0.20242 -0.761368,-0.38314 -1.175332,-0.48577 -0.341733,-0.0708 -0.68752,-0.0981 -1.029981,-0.0104 -0.297709,0.0761 -0.582123,0.19209 -0.844483,0.35365 -0.317963,0.19089 -0.626624,0.39746 -0.905839,0.64279 -0.367215,0.32461 -0.710996,0.6758 -0.988962,1.08167 -0.322797,0.47313 -0.613082,0.96632 -0.863716,1.48178 -0.290579,0.56725 -0.574728,1.13791 -0.839124,1.71792 -0.263868,0.57188 -0.525221,1.14502 -0.768495,1.72605 -0.244192,0.59517 -0.494625,1.18803 -0.718921,1.7911 -0.214013,0.60488 -0.382804,1.22264 -0.532302,1.84655 -0.144139,0.56566 -0.290689,1.1307 -0.430209,1.69753 -0.155292,0.57793 -0.323258,1.1522 -0.493028,1.72602 -0.177498,0.60024 -0.360624,1.2001 -0.48464,1.81429 -0.117885,0.62896 -0.227615,1.26222 -0.23006,1.90433 -0.01508,0.68377 -0.01659,1.36801 -0.05103,2.05122 -0.04671,0.69265 -0.121817,1.38366 -0.257143,2.06521 -0.141555,0.69383 -0.299556,1.384 -0.483863,2.06786 -0.171767,0.70129 -0.317097,1.40851 -0.487465,2.11013 -0.183319,0.74144 -0.362231,1.48366 -0.49779,2.23569 -0.159843,0.77704 -0.31075,1.55592 -0.475221,2.33198 -0.163689,0.66385 -0.374345,1.31191 -0.734351,1.89912 -0.340569,0.56255 -0.707964,1.11066 -1.171466,1.58126 -0.42368,0.42969 -0.859154,0.84808 -1.323515,1.23404 -0.393037,0.31706 -0.800081,0.62001 -1.259233,0.83613 -0.40367,0.18678 -0.821355,0.33741 -1.259911,0.41992 -0.381042,0.0729 -0.765615,0.10801 -1.152328,0.13638 -0.213841,0.0179 -0.429039,0.0365 -0.643355,0.014 -0.438654,-0.0439 -0.500689,0.57648 -0.06204,0.62035 z" />
    <path
       style="font-variation-settings:normal;opacity:1;vector-effect:none;fill:#ff7f2a;fill-opacity:1;stroke:none;stroke-width:0.908;stroke-linecap:butt;stroke-linejoin:round;stroke-miterlimit:10;stroke-dasharray:none;stroke-dashoffset:0;stroke-opacity:1;paint-order:markers stroke fill;stop-color:#000000;stop-opacity:1"
       id="path1181"
       d="m 35.620208,156.24069 c 0.241644,0.0577 0.482944,-0.0113 0.716442,-0.0721 0.334859,-0.0891 0.674367,-0.15875 1.012496,-0.23395 0.454819,-0.097 0.895631,-0.2371 1.327029,-0.40922 0.508473,-0.22188 1.010607,-0.45889 1.506775,-0.70704 0.541137,-0.2715 1.049071,-0.59974 1.547265,-0.94203 0.554905,-0.36061 1.048509,-0.79967 1.519153,-1.26214 0.466341,-0.46651 0.858747,-0.99771 1.27644,-1.50623 0.449548,-0.53359 0.911677,-1.05632 1.361284,-1.58987 0.443862,-0.52542 0.84542,-1.08414 1.248441,-1.64088 0.407969,-0.54737 0.797523,-1.10807 1.183675,-1.67093 0.407567,-0.59698 0.837012,-1.17842 1.257488,-1.76624 0.427791,-0.60071 0.816102,-1.22769 1.180676,-1.86832 0.350089,-0.62842 0.653159,-1.2813 0.962173,-1.93045 0.307237,-0.64514 0.605841,-1.29434 0.908548,-1.94162 0.286644,-0.62922 0.597937,-1.24642 0.916723,-1.85982 0.328149,-0.61825 0.653627,-1.23796 0.988745,-1.85248 0.356449,-0.61241 0.682697,-1.24035 0.982922,-1.88198 0.2818,-0.63199 0.561382,-1.26504 0.831673,-1.90205 0.265776,-0.65013 0.529931,-1.30073 0.807659,-1.94587 0.281498,-0.65109 0.571055,-1.29846 0.87427,-1.93972 0.28661,-0.62483 0.628539,-1.22119 0.973212,-1.81511 0.330507,-0.56039 0.651433,-1.12624 0.966851,-1.69523 0.306565,-0.55411 0.585163,-1.12256 0.850651,-1.69725 0.251119,-0.54958 0.516406,-1.09267 0.782064,-1.63535 0.218127,-0.45029 0.420544,-0.90761 0.661101,-1.34662 0.175487,-0.33025 0.389464,-0.63434 0.630772,-0.91904 0.187677,-0.21171 0.389474,-0.4115 0.619934,-0.57622 0.205791,-0.12094 0.428496,-0.20803 0.655326,-0.2801 0.199985,-0.0624 0.408204,-0.0889 0.616706,-0.0998 0.222102,-0.0106 0.443254,0.0212 0.661067,0.0614 0.249026,0.0518 0.490474,0.1288 0.726916,0.22147 0.241774,0.0944 0.474157,0.20991 0.701469,0.33464 0.293965,0.17785 0.559453,0.39789 0.81557,0.62567 0.3575,0.33233 0.687996,0.692 1.018426,1.0508 0.416693,0.44368 0.823331,0.89624 1.222894,1.35535 0.441277,0.52256 0.906658,1.0239 1.359175,1.53655 0.471488,0.52242 0.892104,1.08615 1.275874,1.67517 0.376872,0.57306 0.678854,1.18956 0.966269,1.81085 0.291719,0.61746 0.54093,1.25297 0.777041,1.89329 0.230177,0.647 0.456949,1.29537 0.675807,1.9463 0.216725,0.66298 0.40772,1.33403 0.604462,2.00313 0.20542,0.68588 0.39992,1.37494 0.601194,2.06202 0.206319,0.71345 0.474276,1.40693 0.754819,2.09389 0.289825,0.72539 0.642779,1.42196 1.016984,2.10673 0.376066,0.67834 0.76236,1.3509 1.139841,2.02845 0.353444,0.6527 0.711137,1.30304 1.069121,1.95325 0.366757,0.66774 0.725828,1.33962 1.073594,2.01744 0.343032,0.67797 0.668742,1.3645 0.97903,2.05802 0.287835,0.65281 0.552852,1.31545 0.803354,1.98339 0.211376,0.57614 0.408903,1.15723 0.600633,1.74016 0.156102,0.48099 0.303401,0.96474 0.460418,1.44542 0.137234,0.42609 0.260247,0.85656 0.386371,1.28602 0.10568,0.37099 0.213,0.74153 0.333539,1.10799 0.106106,0.31363 0.228544,0.62107 0.372097,0.91936 0.128801,0.28391 0.282905,0.55045 0.475522,0.79535 0.211429,0.25566 0.460227,0.47576 0.716052,0.68548 0.165508,0.13626 0.34225,0.25705 0.521785,0.37373 0.369843,0.23991 0.709129,-0.28313 0.339286,-0.52304 v 0 c -0.160475,-0.10388 -0.318373,-0.2115 -0.466175,-0.33312 -0.221628,-0.18112 -0.437845,-0.37053 -0.622395,-0.59035 -0.166126,-0.20739 -0.291735,-0.43768 -0.402608,-0.67904 -0.132361,-0.27332 -0.243369,-0.5559 -0.341384,-0.84331 -0.118621,-0.36001 -0.223494,-0.72427 -0.327539,-1.08872 -0.127891,-0.43547 -0.252658,-0.87194 -0.39193,-1.30395 -0.157183,-0.48108 -0.304464,-0.96528 -0.460814,-1.44663 -0.194437,-0.59103 -0.394695,-1.18022 -0.609137,-1.76432 -0.255137,-0.67994 -0.524822,-1.35456 -0.818007,-2.01907 -0.314894,-0.7036 -0.645266,-1.40018 -0.993412,-2.08798 -0.350592,-0.6832 -0.712423,-1.36048 -1.082138,-2.03351 -0.358489,-0.65113 -0.716653,-1.30241 -1.070639,-1.956 -0.376677,-0.67609 -0.762077,-1.34723 -1.13742,-2.02406 -0.36318,-0.66417 -0.705842,-1.33974 -0.986888,-2.04347 -0.272637,-0.6671 -0.533191,-1.34051 -0.73366,-2.03338 -0.201356,-0.68728 -0.395873,-1.37655 -0.601369,-2.06262 -0.198999,-0.67677 -0.392203,-1.35549 -0.611661,-2.02599 -0.220848,-0.65659 -0.449459,-1.31068 -0.681797,-1.96328 -0.241914,-0.65593 -0.497494,-1.30684 -0.796187,-1.93943 -0.300223,-0.64846 -0.61636,-1.29148 -1.00987,-1.88959 -0.400833,-0.61394 -0.838927,-1.20232 -1.330695,-1.74719 -0.451625,-0.51148 -0.915863,-1.01187 -1.356267,-1.53324 -0.403405,-0.4635 -0.813917,-0.92043 -1.234578,-1.3684 -0.344609,-0.37417 -0.689557,-0.74905 -1.063218,-1.09477 -0.291499,-0.25816 -0.593637,-0.50752 -0.929811,-0.70611 -0.250907,-0.13729 -0.50732,-0.26459 -0.774073,-0.36854 -0.273775,-0.10674 -0.553517,-0.19552 -0.841923,-0.25412 -0.266219,-0.0482 -0.536258,-0.0847 -0.80753,-0.0705 -0.261149,0.0152 -0.521673,0.049 -0.771953,0.12838 -0.289259,0.0929 -0.573455,0.20578 -0.831138,0.36895 -0.269449,0.19688 -0.511456,0.42676 -0.730457,0.67872 -0.267581,0.31721 -0.506293,0.65521 -0.701619,1.02233 -0.244512,0.4476 -0.452927,0.91243 -0.674111,1.37174 -0.267703,0.54689 -0.535017,1.09419 -0.788096,1.64803 -0.259019,0.56086 -0.530794,1.11563 -0.829934,1.65641 -0.313428,0.56542 -0.632357,1.1277 -0.960805,1.68456 -0.353447,0.60906 -0.703525,1.22092 -0.997612,1.86156 -0.306289,0.64789 -0.598927,1.30189 -0.88329,1.9597 -0.278133,0.64615 -0.542909,1.29767 -0.808943,1.94887 -0.267305,0.6301 -0.543964,1.2562 -0.822473,1.88141 -0.2946,0.63012 -0.615577,1.24631 -0.965549,1.84765 -0.337066,0.61818 -0.664567,1.24151 -0.994598,1.86347 -0.32276,0.62112 -0.637926,1.2461 -0.928253,1.88319 -0.302107,0.64599 -0.600118,1.2939 -0.90673,1.93776 -0.302503,0.63548 -0.598935,1.27473 -0.94116,1.89017 -0.353669,0.62204 -0.730742,1.23061 -1.145847,1.81386 -0.422831,0.59115 -0.854699,1.17587 -1.26451,1.77627 -0.383156,0.55854 -0.769726,1.11491 -1.174591,1.65804 -0.394044,0.54436 -0.786321,1.0909 -1.220184,1.60472 -0.451279,0.5356 -0.915371,1.06013 -1.366354,1.59597 -0.403521,0.4916 -0.782642,1.00504 -1.231749,1.45734 -0.444386,0.43735 -0.91024,0.85277 -1.435129,1.19286 -0.474453,0.32616 -0.957757,0.63954 -1.473157,0.8983 -0.48051,0.24061 -0.967137,0.4697 -1.459215,0.68568 -0.400005,0.16028 -0.808921,0.2896 -1.230939,0.37953 -0.345557,0.0769 -0.692494,0.1482 -1.034693,0.23933 -0.133228,0.0349 -0.276479,0.0904 -0.415885,0.0685 -0.429086,-0.10113 -0.572093,0.5057 -0.143005,0.60682 z" />
    <text
       xml:space="preserve"
       style="font-style:normal;font-variant:normal;font-weight:normal;font-stretch:normal;font-size:13.3333px;line-height:1.25;font-family:sans-serif;font-variant-ligatures:normal;font-variant-position:normal;font-variant-caps:normal;font-variant-numeric:normal;font-variant-alternates:normal;font-variant-east-asian:normal;font-feature-settings:normal;font-variation-settings:normal;text-indent:0;text-align:start;text-decoration:none;text-decoration-line:none;text-decoration-style:solid;text-decoration-color:#000000;letter-spacing:normal;word-spacing:normal;text-transform:none;writing-mode:lr-tb;direction:ltr;text-orientation:mixed;dominant-baseline:auto;baseline-shift:baseline;text-anchor:start;white-space:normal;shape-padding:0;shape-margin:0;inline-size:0;opacity:1;vector-effect:none;fill:#000000;fill-opacity:1;stroke:none;stroke-width:0.999999;stroke-linecap:butt;stroke-linejoin:miter;stroke-miterlimit:4;stroke-dasharray:none;stroke-dashoffset:0;stroke-opacity:1;paint-order:markers stroke fill;stop-color:#000000;stop-opacity:1"
       x="350.17819"
       y="596.02618"
       id="text1185"
       transform="scale(0.26458333)"><tspan
         sodipodi:role="line"
         id="tspan1183"
         x="350.17819"
         y="596.02618">c<tspan
   style="font-size:65%;baseline-shift:sub"
   id="tspan1187">i</tspan></tspan></text>
    <text
       xml:space="preserve"
       style="font-style:normal;font-variant:normal;font-weight:normal;font-stretch:normal;font-size:13.3333px;line-height:1.25;font-family:sans-serif;font-variant-ligatures:normal;font-variant-position:normal;font-variant-caps:normal;font-variant-numeric:normal;font-variant-alternates:normal;font-variant-east-asian:normal;font-feature-settings:normal;font-variation-settings:normal;text-indent:0;text-align:start;text-decoration:none;text-decoration-line:none;text-decoration-style:solid;text-decoration-color:#000000;letter-spacing:normal;word-spacing:normal;text-transform:none;writing-mode:lr-tb;direction:ltr;text-orientation:mixed;dominant-baseline:auto;baseline-shift:baseline;text-anchor:start;white-space:normal;shape-padding:0;shape-margin:0;inline-size:0;opacity:1;vector-effect:none;fill:#000000;fill-opacity:1;stroke:none;stroke-width:0.999999;stroke-linecap:butt;stroke-linejoin:miter;stroke-miterlimit:4;stroke-dasharray:none;stroke-dashoffset:0;stroke-opacity:1;paint-order:markers stroke fill;stop-color:#000000;stop-opacity:1"
       x="51.546593"
       y="540.80054"
       id="text1191"
       transform="matrix(0,-0.26458333,0.26458333,0,-125.08908,161.97074)"><tspan
         sodipodi:role="line"
         id="tspan1189"
         x="51.546593"
         y="540.80054">Probability density</tspan></text>
    <text
       xml:space="preserve"
       style="font-style:normal;font-variant:normal;font-weight:normal;font-stretch:normal;font-size:13.3333px;line-height:1.25;font-family:sans-serif;font-variant-ligatures:normal;font-variant-position:normal;font-variant-caps:normal;font-variant-numeric:normal;font-variant-alternates:normal;font-variant-east-asian:normal;font-feature-settings:normal;font-variation-settings:normal;text-indent:0;text-align:start;text-decoration:none;text-decoration-line:none;text-decoration-style:solid;text-decoration-color:#000000;letter-spacing:normal;word-spacing:normal;text-transform:none;writing-mode:lr-tb;direction:ltr;text-orientation:mixed;dominant-baseline:auto;baseline-shift:baseline;text-anchor:start;white-space:normal;shape-padding:0;shape-margin:0;inline-size:0;opacity:1;vector-effect:none;fill:#0066ff;fill-opacity:1;stroke:none;stroke-width:0.999999;stroke-linecap:butt;stroke-linejoin:miter;stroke-miterlimit:4;stroke-dasharray:none;stroke-dashoffset:0;stroke-opacity:1;paint-order:markers stroke fill;stop-color:#000000;stop-opacity:1"
       x="143.11282"
       y="439.47864"
       id="text1195"
       transform="matrix(0.26458333,0,0,0.26458333,-1.9130748,0.07319068)"><tspan
         sodipodi:role="line"
         id="tspan1193"
         x="143.11282"
         y="439.47864">x=x<tspan
   style="font-size:65%;baseline-shift:sub;fill:#0066ff"
   id="tspan1197">0</tspan></tspan></text>
    <text
       xml:space="preserve"
       style="font-style:normal;font-variant:normal;font-weight:normal;font-stretch:normal;font-size:13.3333px;line-height:1.25;font-family:sans-serif;font-variant-ligatures:normal;font-variant-position:normal;font-variant-caps:normal;font-variant-numeric:normal;font-variant-alternates:normal;font-variant-east-asian:normal;font-feature-settings:normal;font-variation-settings:normal;text-indent:0;text-align:start;text-decoration:none;text-decoration-line:none;text-decoration-style:solid;text-decoration-color:#000000;letter-spacing:normal;word-spacing:normal;text-transform:none;writing-mode:lr-tb;direction:ltr;text-orientation:mixed;dominant-baseline:auto;baseline-shift:baseline;text-anchor:start;white-space:normal;shape-padding:0;shape-margin:0;inline-size:0;opacity:1;vector-effect:none;fill:#ff7f2a;fill-opacity:1;stroke:none;stroke-width:0.999999;stroke-linecap:butt;stroke-linejoin:miter;stroke-miterlimit:4;stroke-dasharray:none;stroke-dashoffset:0;stroke-opacity:1;paint-order:markers stroke fill;stop-color:#000000;stop-opacity:1"
       x="143.11282"
       y="439.47864"
       id="text1203"
       transform="matrix(0.26458333,0,0,0.26458333,23.156666,-0.52274438)"><tspan
         sodipodi:role="line"
         id="tspan1201"
         x="143.11282"
         y="439.47864">x=x<tspan
   style="font-size:65%;baseline-shift:sub;fill:#ff7f2a"
   id="tspan1199">1</tspan></tspan></text>
  </g>
</svg>
